<svg width="56" height="33" viewBox="0 0 56 33" fill="none" xmlns="http://www.w3.org/2000/svg">
<g id="Fish 1">
<path id="Vector" d="M4.15105 26.1052C3.84231 25.3719 3.82061 24.6604 3.89055 23.9392C4.13417 21.4524 5.37152 19.5397 7.31559 18.0418C8.37928 17.2218 9.4478 16.4137 10.5067 15.5888C10.7141 15.4272 10.8878 15.2222 11.0638 15.0244C11.7127 14.296 11.7199 13.5073 11.0735 12.7668C10.5018 12.1132 9.73724 11.7465 8.94851 11.4378C7.67016 10.9361 6.36285 10.5043 5.10379 9.95924C3.23208 9.14881 1.6691 7.87045 0.178487 6.50526C0.115775 6.44737 0.079596 6.36295 0 6.24717C1.0251 6.08557 1.9899 6.16758 2.90405 6.48596C4.46461 7.02866 6.02035 7.59548 7.53991 8.24672C9.85543 9.24046 12.1951 10.1281 14.6529 10.7142C15.7672 10.9795 16.8623 11.4257 17.5907 12.3519C17.9742 12.8368 18.3119 12.7909 18.8064 12.7306C20.0124 12.5835 21.228 12.4942 22.4412 12.4195C22.6149 12.4074 22.8682 12.5425 22.9743 12.692C23.7775 13.816 24.7592 14.7639 25.9796 15.3886C28.271 16.5633 30.5986 17.6608 32.9165 18.7799C33.7222 19.1682 33.9199 19.5325 33.6377 20.2271C33.4834 20.6082 33.2084 20.9049 32.7935 20.8374C32.1254 20.7288 31.4308 20.6179 30.8205 20.3477C29.8967 19.9377 29.0308 19.395 28.1456 18.9005C27.5595 18.5749 27.3472 18.5749 26.8504 19.0235C26.585 19.2623 26.3438 19.5349 26.134 19.8243C25.9507 20.0752 25.777 20.1138 25.5045 19.9859C25.1523 19.8195 24.7664 19.7206 24.4239 19.5397C22.9598 18.7679 21.4378 18.8692 19.9014 19.2093C16.884 19.8774 14.0788 21.0544 11.4642 22.7067C9.29102 24.0815 6.97068 25.1548 4.54903 26.0111C4.43325 26.0521 4.31024 26.0714 4.15346 26.1124L4.15105 26.1052Z" fill="#D00000"/>
<path id="Vector_2" d="M40.7652 18.8643C40.4202 19.1416 40.1163 19.337 39.8727 19.5927C39.3614 20.1282 39.3493 20.6516 39.8992 21.1412C40.2876 21.4885 40.7652 21.7394 41.221 21.9999C41.5322 22.1784 41.5973 22.3593 41.4188 22.6776C41.0546 23.3216 40.4974 23.7269 39.8389 24.0115C38.6088 24.5469 37.2967 24.5855 35.9822 24.6603C33.8282 24.7857 31.8504 24.1104 29.8943 23.3626C29.0404 23.0346 28.2372 22.5715 27.4196 22.1518C27.2145 22.0457 27.0312 21.8889 26.8552 21.737C25.97 20.9724 25.9748 20.4658 26.8648 19.6771C27.5281 19.0886 27.6366 19.0717 28.423 19.4673C29.3564 19.9376 30.2923 20.4055 31.2209 20.8831C31.9083 21.2353 32.6078 21.3414 33.3434 21.0568C33.8307 20.8686 34.1563 20.4369 34.1659 19.9159C34.178 19.3853 33.9537 18.9969 33.464 18.7509C31.327 17.6824 29.1851 16.6259 27.0698 15.5212C25.1378 14.5106 23.7147 13.0128 23.0949 10.8854C22.0191 7.1926 24.9256 5.07246 27.5305 5.21959C28.9054 5.29677 30.2657 5.68028 31.6261 5.96972C32.2629 6.10479 32.8924 6.30981 33.5026 6.53895C35.5794 7.31561 36.8529 8.86412 37.591 10.8974C37.7719 11.3943 37.8876 11.9129 38.0396 12.4218C38.1337 12.733 38.0106 12.9018 37.7019 12.9549C36.426 13.1816 35.2031 13.0272 34.0863 12.3591C33.1891 11.8212 32.9455 10.8516 32.5644 9.95916C32.2074 9.11979 31.7274 8.32865 31.286 7.52546C31.0231 7.04788 30.5769 7.05994 30.1475 7.20707C29.1031 7.56646 28.4423 8.33107 28.0515 9.33446C27.7259 10.169 28.0419 10.8637 28.6087 11.4667C29.4046 12.3133 30.4321 12.827 31.45 13.336C33.628 14.4238 35.823 15.4802 38.0034 16.5632C39.096 17.1059 39.9475 17.9429 40.7676 18.8667L40.7652 18.8643Z" fill="#D00000"/>
<path id="Vector_3" d="M38.7824 12.0237C38.6956 11.7439 38.6136 11.4955 38.5388 11.2422C37.5644 7.93052 35.3526 5.96233 32.0023 5.25079C30.9651 5.02889 29.9135 4.87211 28.8667 4.68397C28.7919 4.6695 28.722 4.64297 28.5459 4.5899C29.7591 3.47315 30.9024 2.37569 31.491 0.75C31.942 1.09974 32.352 1.37953 32.7162 1.70756C34.5542 3.35978 35.9073 5.3738 37.041 7.54942C37.3449 8.13072 37.6126 8.72889 37.9358 9.29812C38.0371 9.47661 38.247 9.66716 38.4375 9.70575C40.1524 10.0507 41.8698 10.3787 43.5944 10.6706C43.9658 10.7333 44.3758 10.6754 44.7473 10.5861C45.5843 10.3883 46.3416 10.6585 47.058 10.9841C47.8202 11.3314 48.5679 11.7487 49.2384 12.248C50.6157 13.2707 51.9616 14.3416 53.2713 15.4487C53.8502 15.9359 54.3567 16.5269 54.815 17.1323C55.295 17.7667 55.2009 18.1453 54.6051 18.6326C55.1044 19.8554 55.0851 19.8048 53.8261 20.251C52.8902 20.5815 52.0195 21.0952 51.0957 21.4715C50.0609 21.8936 48.9997 22.2554 47.9143 22.5641C48.1169 22.3856 48.346 22.2264 48.5197 22.0238C49.1854 21.2399 49.1251 20.0605 48.3846 19.086C47.7551 18.2563 46.9253 17.6871 45.9871 17.265C45.7362 17.1516 45.495 17.0141 45.2635 16.8139C45.5939 16.7994 45.9292 16.8139 46.2524 16.7633C47.0146 16.6402 47.1521 16.3918 46.9856 15.6537C46.4381 13.2442 44.8245 12.0743 42.4776 11.7415C42.0459 11.6812 41.6141 11.5943 41.192 11.4906C40.4539 11.3097 39.8099 11.5847 39.1635 11.8717C39.0526 11.92 38.9368 11.961 38.7848 12.0213L38.7824 12.0237ZM51.1174 15.4656C50.6929 15.4511 50.3914 15.6827 50.3914 16.0204C50.3914 16.4015 50.8448 16.7729 51.3176 16.785C51.7107 16.7946 52.0557 16.5293 52.0557 16.2206C52.0557 15.8515 51.5926 15.4801 51.1174 15.4656Z" fill="#D00000"/>
<path id="Vector_4" d="M23.8596 32.6559C24.0333 31.5488 24.1876 30.4393 24.3854 29.337C24.6725 27.7331 25.0729 26.1604 25.9918 24.7784C26.1968 24.4696 26.4332 24.1681 26.7106 23.9245C27.2557 23.4469 27.8201 23.2491 28.5775 23.6206C30.3069 24.4696 32.1376 25.0509 34.0479 25.3572C34.1371 25.3717 34.2216 25.4151 34.3687 25.4682C33.9008 26.872 33.6282 28.3264 32.5862 29.5806C32.1617 28.6496 32.0242 27.7958 32.1569 26.8117C29.8776 29.4745 27.0386 31.2401 24.0164 32.75C23.9633 32.7187 23.9127 32.6873 23.8596 32.6559Z" fill="#D00000"/>
<path id="Vector_5" d="M46.2356 16.0153C45.1213 16.3313 44.1565 15.8368 43.7368 14.79C43.5246 14.2594 43.2448 13.7529 42.9746 13.2464C42.772 12.8653 42.415 12.8532 42.0774 12.9955C41.4117 13.2729 40.9871 13.7818 40.881 14.503C40.8135 14.9589 41.0233 15.352 41.402 15.586C42.2486 16.107 43.1121 16.6039 43.9853 17.0814C44.9308 17.5976 45.9052 18.0583 46.8435 18.5841C47.5044 18.9556 47.9578 19.5248 48.1773 20.2677C48.4113 21.0612 48.1508 21.6594 47.3862 21.9778C46.4383 22.3685 45.4276 22.4554 44.4363 22.2986C43.1869 22.1008 41.9736 21.7269 40.8834 21.0468C40.7918 20.9889 40.7001 20.9286 40.6157 20.8586C40.389 20.6657 40.1236 20.4872 40.3504 20.1254C40.5819 19.7539 40.8569 19.6647 41.2549 19.8504C41.8482 20.1278 42.4223 20.4534 43.0398 20.6633C43.3485 20.7694 43.7609 20.738 44.0697 20.6198C44.2747 20.5427 44.458 20.217 44.5087 19.9734C44.5714 19.6695 44.4459 19.3777 44.1059 19.2112C43.0398 18.6902 41.9881 18.1403 40.9268 17.6145C40.1695 17.2406 39.5568 16.7076 39.0455 16.0346C38.6354 15.4968 38.4835 14.8841 38.4473 14.2449C38.3798 13.0823 39.5785 12.05 40.8545 12.2164C41.812 12.3419 42.772 12.5107 43.6958 12.7833C45.1527 13.2126 45.9221 14.31 46.2549 15.7476C46.2646 15.7934 46.267 15.8417 46.2646 15.8875C46.2622 15.9333 46.2453 15.9767 46.2356 16.0202V16.0153Z" fill="#D00000"/>
<path id="Vector_6" d="M37.6948 13.8807C37.7671 14.4258 37.8443 14.9926 37.9239 15.5932C37.8443 15.5715 37.7406 15.5643 37.6538 15.5208C35.3889 14.4041 33.1168 13.297 30.864 12.1537C30.3406 11.8884 29.8534 11.5314 29.3975 11.1599C28.5967 10.5039 28.5219 9.85747 29.0864 8.98673C29.1804 8.84443 29.2817 8.70453 29.3999 8.57911C30.2345 7.69873 30.7651 7.78073 31.2547 8.88784C31.5369 9.52943 31.7926 10.1831 32.0362 10.8391C32.632 12.4407 33.768 13.4079 35.4444 13.6925C36.1752 13.8156 36.9254 13.8204 37.6972 13.8831L37.6948 13.8807Z" fill="#D00000"/>
<path id="Vector_7" d="M43.6065 16.1749C42.9674 15.7672 42.3909 15.4392 41.8675 15.0412C41.7179 14.9279 41.607 14.5709 41.6721 14.4044C41.7782 14.1391 42.0412 13.9317 42.2582 13.7219C42.2824 13.7001 42.4826 13.7966 42.5332 13.8786C42.6731 14.1005 42.7841 14.3441 42.8926 14.5829C43.1145 15.0702 43.3292 15.5598 43.6041 16.1749H43.6065Z" fill="#D00000"/>
<path id="Vector_8" d="M45.3456 23.2012C44.1999 23.3653 43.0325 23.5317 41.7324 23.7174C41.9543 23.3122 42.0725 23.0059 42.2727 22.7647C42.3644 22.6537 42.6224 22.6055 42.7841 22.6368C43.6355 22.8057 44.4821 23.0083 45.348 23.2037L45.3456 23.2012Z" fill="#D00000"/>
<path id="Vector_9" d="M21.99 8.85889C22.113 9.73444 22.2312 10.569 22.347 11.4035C21.5727 11.4856 21.3123 11.2564 21.387 10.4822C21.4425 9.89846 21.5727 9.33646 21.99 8.85889Z" fill="#D00000"/>
<path id="Vector_10" d="M43.855 19.8823C43.1507 20.1982 41.9954 19.5783 41.7759 18.8354C42.4705 19.1852 43.1097 19.506 43.855 19.8823Z" fill="#D00000"/>
</g>
</svg>
