<svg width="176" height="33" viewBox="0 0 176 33" fill="none" xmlns="http://www.w3.org/2000/svg">
<g clip-path="url(#clip0_16_30)">
<path d="M97.5708 26.4601C97.3289 25.6119 97.3946 25.4745 98.1264 25.1937C99.0314 24.8503 99.4555 24.2798 99.4585 23.2971C99.4704 20.2208 99.4704 17.1415 99.4555 14.0651C99.4555 13.644 99.3808 13.2109 99.2554 12.8107C98.9836 11.9445 98.3922 11.3979 97.4663 11.2934C96.0177 11.1291 94.8111 11.6697 93.7896 12.6583C93.6612 12.7838 93.5985 13.0347 93.5985 13.2288C93.5895 16.7144 93.5895 20.1969 93.5985 23.6824C93.5985 24.4381 94.0076 24.9339 94.7991 25.1967C95.6683 25.4864 95.6892 25.5223 95.501 26.4989H86.5139V25.4118C87.0366 25.2355 87.5443 25.1131 88.0073 24.8951C88.5957 24.6173 88.9033 24.1036 88.9033 23.4465C88.9093 19.7877 88.9123 16.1289 88.9033 12.4702C88.9033 11.6697 88.515 11.2038 87.7385 11.0306C87.3651 10.9469 86.9768 10.944 86.502 10.8962C86.502 10.6363 86.4781 10.3317 86.5139 10.036C86.5288 9.92249 86.6573 9.75523 86.7618 9.72835C88.9063 9.21762 91.0538 8.72182 93.2012 8.22602C93.2341 8.22005 93.2729 8.24394 93.3745 8.2738V10.9708C93.6253 10.7946 93.7747 10.6931 93.921 10.5855C95.2412 9.61187 96.6479 8.82635 98.2936 8.54261C100.259 8.20511 101.767 8.95777 102.986 10.4422C103.132 10.6214 103.269 10.8066 103.443 11.0306C103.927 10.6961 104.387 10.3526 104.873 10.0449C106.585 8.96673 108.407 8.33354 110.477 8.53066C112.836 8.75766 114.428 10.4362 114.434 12.7928C114.44 16.2006 114.434 19.6055 114.44 23.0134C114.44 24.2828 114.951 25.0324 115.963 25.2445C116.316 25.3192 116.692 25.2953 117.068 25.3192C117.089 25.4028 117.119 25.4745 117.128 25.5462C117.221 26.5019 117.191 26.5348 116.253 26.5348C113.696 26.5348 111.14 26.5348 108.586 26.5318C108.311 26.5318 107.947 26.6214 107.983 26.1465C108.009 25.7881 107.765 25.3072 108.454 25.2415C108.783 25.2087 109.109 25.0175 109.413 24.8562C109.861 24.6173 110.034 24.2439 110.031 23.7123C110.011 20.5583 110.023 17.4013 110.017 14.2473C110.017 13.9397 110.005 13.6261 109.96 13.3214C109.79 12.0849 108.956 11.3561 107.708 11.3472C106.51 11.3382 105.411 11.6817 104.446 12.3836C104.237 12.5359 104.049 12.8734 104.046 13.1303C104.019 16.6516 104.022 20.176 104.031 23.7004C104.031 24.5247 104.587 25.1459 105.539 25.2475C106.205 25.3192 106.053 25.7194 106.065 26.1047C106.083 26.5796 105.731 26.49 105.459 26.49C103.001 26.4959 100.54 26.493 98.0816 26.49C97.9113 26.49 97.7381 26.4721 97.5798 26.4601H97.5708Z" fill="#D00000"/>
<path d="M146.049 27.0242C146.084 26.3104 146.09 25.7519 146.15 25.2023C146.168 25.0351 146.305 24.8439 146.44 24.7334C148.002 23.4521 148.716 21.7168 148.973 19.7933C149.301 17.3412 149.122 14.9219 148.077 12.6341C147.739 11.8964 147.276 11.2393 146.407 10.851C146.347 11.6395 146.282 12.3444 146.243 13.0493C145.995 17.5891 145.75 22.129 145.511 26.6688C145.493 26.9944 145.52 27.2781 145.03 27.2482C144.606 27.2244 144.376 27.1766 144.346 26.6539C144.05 21.5943 143.728 16.5348 143.408 11.4752C143.396 11.308 143.355 11.1437 143.319 10.9257C142.234 11.302 141.676 12.1234 141.389 13.0732C140.374 16.4093 140.41 19.7217 141.99 22.8966C142.342 23.6074 142.948 24.1928 143.432 24.8379C143.534 24.9724 143.674 25.1127 143.695 25.2621C143.761 25.7967 143.782 26.3343 143.823 26.9227C143.677 26.9227 143.582 26.9436 143.501 26.9197C141.004 26.1611 138.761 24.9873 137.223 22.798C136.061 21.1433 135.726 19.2408 135.888 17.2665C136.139 14.235 137.342 11.7022 139.994 10.0356C140.69 9.59658 141.488 9.31881 142.246 8.98728C142.82 8.73639 143.411 8.51538 143.991 8.27942C144.71 7.98971 145.4 7.90309 146.061 8.45564C146.24 8.60498 146.512 8.66471 146.75 8.7125C150.122 9.39049 152.264 11.4932 153.399 14.6322C155.266 19.7963 152.598 24.3631 147.754 26.4418C147.234 26.6658 146.682 26.8122 146.049 27.0242Z" fill="#D00000"/>
<path d="M164.629 26.5014C164.453 26.5133 164.264 26.5372 164.076 26.5372C161.406 26.5372 158.733 26.5432 156.063 26.5372C155.827 26.5372 155.439 26.6686 155.478 26.2147C155.507 25.8503 155.209 25.3127 155.902 25.2111C156.072 25.1842 156.239 25.1215 156.406 25.0737C157.706 24.6944 157.951 24.3748 157.951 23.0487C157.951 19.6617 157.951 16.2748 157.951 12.8908C157.951 11.4332 157.425 10.9046 155.967 10.8867C155.854 10.8867 155.737 10.8747 155.63 10.8688C155.4 9.98468 155.477 9.82041 156.284 9.63224C158.13 9.20514 159.979 8.78998 161.827 8.37183C161.971 8.33898 162.123 8.34794 162.338 8.33301V11.0659C162.744 10.7373 163.058 10.4865 163.368 10.2326C165.035 8.87958 166.887 8.1986 169.073 8.54506C171.08 8.86465 172.678 10.3909 172.938 12.398C173.028 13.0849 173.054 13.7838 173.057 14.4797C173.069 17.3231 173.063 20.1695 173.063 23.0129C173.063 24.2912 173.768 25.0946 175.05 25.2768C175.572 25.3515 175.868 25.8801 175.605 26.3222C175.548 26.4207 175.351 26.4805 175.22 26.4805C172.394 26.4894 169.569 26.4924 166.74 26.4865C166.251 26.4865 166.182 26.2684 166.373 25.4411C168.398 25.229 168.577 24.4316 168.553 22.753C168.512 19.7932 168.541 16.8333 168.541 13.8704C168.541 11.8036 167.284 10.7851 165.331 11.4153C164.432 11.705 163.616 12.2725 162.798 12.7683C162.619 12.8758 162.484 13.2104 162.484 13.4403C162.463 16.8452 162.478 20.2531 162.463 23.658C162.46 24.3599 162.861 24.7064 163.41 24.9752C163.566 25.0498 163.733 25.1006 163.9 25.1574C164.507 25.3604 164.751 25.8095 164.632 26.5044L164.629 26.5014Z" fill="#D00000"/>
<path d="M71.6101 8.50952V14.4442H70.4004C69.9434 13.5093 69.6 12.5715 69.0624 11.7651C68.0887 10.2986 66.434 9.80278 64.9526 10.4031C63.4503 11.0094 63.1068 12.4192 64.2059 13.6019C65.1766 14.6503 66.4549 15.2237 67.7392 15.7673C69.1579 16.3647 70.508 17.0755 71.5802 18.2015C73.0049 19.6979 73.2647 21.4362 72.6076 23.3626C71.9267 25.3578 70.5169 26.4629 68.474 26.8063C66.6939 27.105 64.9675 26.7556 63.2531 26.3314C63.047 26.2807 62.829 26.2448 62.6409 26.1522C62.1271 25.8984 61.8344 26.0596 61.473 26.4957C61.2879 26.7167 60.7473 26.6809 60.365 26.6749C60.2813 26.6749 60.135 26.3135 60.135 26.1164C60.1171 24.2825 60.123 22.4457 60.123 20.5222C60.5621 20.5222 60.9683 20.4774 61.3536 20.5461C61.4969 20.573 61.6493 20.8537 61.6941 21.0419C62.1391 22.9086 63.2352 24.2168 65.0064 24.9456C65.8934 25.31 66.7984 25.3876 67.7243 25.0621C69.0863 24.5842 69.6657 23.0161 68.8085 21.8603C68.3814 21.2868 67.8019 20.7701 67.1897 20.3998C65.7172 19.5127 64.1731 18.7481 62.6797 17.8939C60.6547 16.735 59.7557 14.6861 60.2634 12.4819C60.7413 10.4061 62.5751 8.93065 64.854 8.78729C66.4101 8.68872 67.9483 8.79625 69.4566 9.21439C69.8807 9.33088 70.2003 9.29802 70.3945 8.82612C70.6453 8.21383 71.1591 8.64094 71.6071 8.50952H71.6101Z" fill="#D00000"/>
<path d="M120.962 20.0269C121.064 20.3883 121.141 20.7079 121.24 21.0185C121.903 23.0884 123.325 24.3249 125.436 24.7341C126.986 25.0357 128.324 24.2084 128.575 22.8823C128.725 22.0818 128.438 21.377 127.843 20.911C126.936 20.2002 125.959 19.57 124.97 18.9756C124.029 18.4081 123.02 17.9482 122.067 17.4016C120.084 16.2607 119.146 14.146 119.657 12.0314C120.159 9.9407 121.93 8.47421 124.17 8.30994C125.744 8.19345 127.303 8.30097 128.832 8.7221C129.283 8.84755 129.63 8.81469 129.812 8.31591C130 7.80219 130.439 8.07099 130.762 8.06502C130.851 8.06502 131.024 8.39356 131.024 8.57277C131.045 10.3499 131.036 12.127 131.036 13.9967C130.621 13.9967 130.257 14.0296 129.904 13.9788C129.776 13.9609 129.618 13.7607 129.573 13.6144C129.274 12.6467 128.91 11.7178 128.232 10.9383C127.085 9.62411 125.305 9.2866 123.94 10.1229C122.885 10.771 122.656 11.8552 123.396 12.8498C124.101 13.7966 125.126 14.3103 126.144 14.833C127.413 15.4841 128.716 16.0844 129.928 16.8281C130.986 17.4733 131.771 18.4201 132.15 19.6357C133.094 22.6493 131.051 25.8003 127.811 26.326C126.051 26.6097 124.343 26.2633 122.647 25.8421C122.402 25.7824 122.151 25.7316 121.924 25.6271C121.491 25.427 121.177 25.5285 120.959 25.9407C120.681 26.4634 120.203 26.2006 119.818 26.1886C119.726 26.1886 119.576 25.7764 119.573 25.5494C119.537 23.9456 119.552 22.3387 119.501 20.7318C119.484 20.1823 119.627 19.9373 120.203 20.021C120.448 20.0568 120.699 20.0269 120.959 20.0269H120.962Z" fill="#D00000"/>
<path d="M75.1261 11.0187C75.1261 10.7021 75.141 10.4542 75.1231 10.2093C75.0992 9.88071 75.2187 9.73735 75.5591 9.67164C77.3811 9.31323 79.194 8.93093 81.0129 8.5546C81.4042 8.47395 81.7955 8.39929 82.2763 8.30371C82.2763 8.70393 82.2763 9.0265 82.2763 9.34907C82.2763 13.9546 82.2763 18.5572 82.2763 23.1628C82.2763 24.6113 82.7632 25.1639 84.2267 25.3102C84.5821 25.3461 84.7255 25.4447 84.7494 25.824C84.7852 26.3705 84.6209 26.5617 84.0445 26.5557C81.2967 26.5259 78.5489 26.5438 75.8011 26.5408C75.5024 26.5408 75.138 26.6244 75.1589 26.1226C75.1768 25.7433 75.0126 25.2953 75.6786 25.2475C76.049 25.2206 76.4193 25.0414 76.7688 24.8831C77.3094 24.6382 77.5603 24.2201 77.5573 23.5959C77.5394 19.958 77.5513 16.3231 77.5513 12.6853C77.5513 11.3144 76.945 10.7827 75.592 10.9709C75.4785 10.9858 75.365 10.9948 75.1291 11.0217L75.1261 11.0187Z" fill="#D00000"/>
<path d="M79.8715 5.91707C78.4408 5.92006 77.267 4.78211 77.2521 3.37237C77.2372 1.93873 78.4229 0.747019 79.8625 0.750006C81.2872 0.750006 82.4311 1.8999 82.4371 3.33055C82.4431 4.75822 81.2991 5.9111 79.8745 5.91707H79.8715Z" fill="#D00000"/>
<path d="M146.726 29.9396C146.706 30.979 145.893 31.7734 144.875 31.7495C143.847 31.7256 143.047 30.9013 143.056 29.8828C143.065 28.8345 143.895 28.04 144.964 28.0579C146.001 28.0758 146.75 28.8763 146.726 29.9426V29.9396Z" fill="#D00000"/>
</g>
<g clip-path="url(#clip1_16_30)">
<path d="M4.15105 26.1052C3.84231 25.3719 3.82061 24.6604 3.89055 23.9392C4.13417 21.4524 5.37152 19.5397 7.31559 18.0418C8.37928 17.2218 9.4478 16.4137 10.5067 15.5888C10.7141 15.4272 10.8878 15.2222 11.0638 15.0244C11.7127 14.296 11.7199 13.5073 11.0735 12.7668C10.5018 12.1132 9.73724 11.7465 8.94851 11.4378C7.67016 10.9361 6.36285 10.5043 5.10379 9.95924C3.23208 9.14881 1.6691 7.87045 0.178487 6.50526C0.115775 6.44737 0.079596 6.36295 0 6.24717C1.0251 6.08557 1.9899 6.16758 2.90405 6.48596C4.46461 7.02866 6.02035 7.59548 7.53991 8.24672C9.85543 9.24046 12.1951 10.1281 14.6529 10.7142C15.7672 10.9795 16.8623 11.4257 17.5907 12.3519C17.9742 12.8368 18.3119 12.7909 18.8064 12.7306C20.0124 12.5835 21.228 12.4942 22.4412 12.4195C22.6149 12.4074 22.8682 12.5425 22.9743 12.692C23.7775 13.816 24.7592 14.7639 25.9796 15.3886C28.271 16.5633 30.5986 17.6608 32.9165 18.7799C33.7222 19.1682 33.9199 19.5325 33.6377 20.2271C33.4834 20.6082 33.2084 20.9049 32.7935 20.8374C32.1254 20.7288 31.4308 20.6179 30.8205 20.3477C29.8967 19.9377 29.0308 19.395 28.1456 18.9005C27.5595 18.5749 27.3472 18.5749 26.8504 19.0235C26.585 19.2623 26.3438 19.5349 26.134 19.8243C25.9507 20.0752 25.777 20.1138 25.5045 19.9859C25.1523 19.8195 24.7664 19.7206 24.4239 19.5397C22.9598 18.7679 21.4378 18.8692 19.9014 19.2093C16.884 19.8774 14.0788 21.0544 11.4642 22.7067C9.29102 24.0815 6.97068 25.1548 4.54903 26.0111C4.43325 26.0521 4.31024 26.0714 4.15346 26.1124L4.15105 26.1052Z" fill="#D00000"/>
<path d="M40.7654 18.8643C40.4204 19.1416 40.1165 19.337 39.8729 19.5927C39.3616 20.1282 39.3495 20.6516 39.8994 21.1412C40.2878 21.4885 40.7654 21.7394 41.2212 21.9999C41.5324 22.1784 41.5975 22.3593 41.419 22.6776C41.0548 23.3216 40.4976 23.7269 39.8391 24.0115C38.609 24.5469 37.2969 24.5855 35.9824 24.6603C33.8284 24.7857 31.8506 24.1104 29.8945 23.3626C29.0406 23.0346 28.2374 22.5715 27.4198 22.1518C27.2147 22.0457 27.0314 21.8889 26.8554 21.737C25.9702 20.9724 25.975 20.4658 26.865 19.6771C27.5283 19.0886 27.6368 19.0717 28.4232 19.4673C29.3566 19.9376 30.2925 20.4055 31.2211 20.8831C31.9085 21.2353 32.608 21.3414 33.3436 21.0568C33.8309 20.8686 34.1565 20.4369 34.1661 19.9159C34.1782 19.3853 33.9539 18.9969 33.4642 18.7509C31.3272 17.6824 29.1853 16.6259 27.07 15.5212C25.138 14.5106 23.7149 13.0128 23.0951 10.8854C22.0193 7.1926 24.9258 5.07246 27.5307 5.21959C28.9056 5.29677 30.2659 5.68028 31.6263 5.96972C32.2631 6.10479 32.8926 6.30981 33.5028 6.53895C35.5796 7.31561 36.8531 8.86412 37.5912 10.8974C37.7721 11.3943 37.8878 11.9129 38.0398 12.4218C38.1339 12.733 38.0108 12.9018 37.7021 12.9549C36.4262 13.1816 35.2033 13.0272 34.0865 12.3591C33.1893 11.8212 32.9457 10.8516 32.5646 9.95916C32.2076 9.11979 31.7276 8.32865 31.2862 7.52546C31.0233 7.04788 30.5771 7.05994 30.1477 7.20707C29.1033 7.56646 28.4425 8.33107 28.0517 9.33446C27.7261 10.169 28.0421 10.8637 28.6089 11.4667C29.4048 12.3133 30.4323 12.827 31.4502 13.336C33.6282 14.4238 35.8232 15.4802 38.0036 16.5632C39.0962 17.1059 39.9477 17.9429 40.7678 18.8667L40.7654 18.8643Z" fill="#D00000"/>
<path d="M38.7824 12.0237C38.6956 11.7439 38.6136 11.4955 38.5388 11.2422C37.5644 7.93052 35.3526 5.96233 32.0023 5.25079C30.9651 5.02889 29.9135 4.87211 28.8667 4.68397C28.7919 4.6695 28.722 4.64297 28.5459 4.5899C29.7591 3.47315 30.9024 2.37569 31.491 0.75C31.942 1.09974 32.352 1.37953 32.7162 1.70756C34.5542 3.35978 35.9073 5.3738 37.041 7.54942C37.3449 8.13072 37.6126 8.72889 37.9358 9.29812C38.0371 9.47661 38.247 9.66716 38.4375 9.70575C40.1524 10.0507 41.8698 10.3787 43.5944 10.6706C43.9658 10.7333 44.3758 10.6754 44.7473 10.5861C45.5843 10.3883 46.3416 10.6585 47.058 10.9841C47.8202 11.3314 48.5679 11.7487 49.2384 12.248C50.6157 13.2707 51.9616 14.3416 53.2713 15.4487C53.8502 15.9359 54.3567 16.5269 54.815 17.1323C55.295 17.7667 55.2009 18.1453 54.6051 18.6326C55.1044 19.8554 55.0851 19.8048 53.8261 20.251C52.8902 20.5815 52.0195 21.0952 51.0957 21.4715C50.0609 21.8936 48.9997 22.2554 47.9143 22.5641C48.1169 22.3856 48.346 22.2264 48.5197 22.0238C49.1854 21.2399 49.1251 20.0605 48.3846 19.086C47.7551 18.2563 46.9253 17.6871 45.9871 17.265C45.7362 17.1516 45.495 17.0141 45.2635 16.8139C45.5939 16.7994 45.9292 16.8139 46.2524 16.7633C47.0146 16.6402 47.1521 16.3918 46.9856 15.6537C46.4381 13.2442 44.8245 12.0743 42.4776 11.7415C42.0459 11.6812 41.6141 11.5943 41.192 11.4906C40.4539 11.3097 39.8099 11.5847 39.1635 11.8717C39.0526 11.92 38.9368 11.961 38.7848 12.0213L38.7824 12.0237ZM51.1174 15.4656C50.6929 15.4511 50.3914 15.6827 50.3914 16.0204C50.3914 16.4015 50.8448 16.7729 51.3176 16.785C51.7107 16.7946 52.0557 16.5293 52.0557 16.2206C52.0557 15.8515 51.5926 15.4801 51.1174 15.4656Z" fill="#D00000"/>
<path d="M23.8594 32.6559C24.0331 31.5488 24.1874 30.4393 24.3852 29.337C24.6723 27.7331 25.0727 26.1604 25.9916 24.7784C26.1966 24.4696 26.433 24.1681 26.7104 23.9245C27.2555 23.4469 27.8199 23.2491 28.5773 23.6206C30.3067 24.4696 32.1374 25.0509 34.0477 25.3572C34.1369 25.3717 34.2214 25.4151 34.3685 25.4682C33.9006 26.872 33.628 28.3264 32.586 29.5806C32.1615 28.6496 32.024 27.7958 32.1567 26.8117C29.8774 29.4745 27.0384 31.2401 24.0162 32.75C23.9631 32.7187 23.9125 32.6873 23.8594 32.6559Z" fill="#D00000"/>
<path d="M46.2354 16.0153C45.1211 16.3313 44.1563 15.8368 43.7366 14.79C43.5244 14.2594 43.2446 13.7529 42.9744 13.2464C42.7718 12.8653 42.4148 12.8532 42.0772 12.9955C41.4115 13.2729 40.9869 13.7818 40.8808 14.503C40.8133 14.9589 41.0231 15.352 41.4018 15.586C42.2484 16.107 43.1119 16.6039 43.9851 17.0814C44.9306 17.5976 45.905 18.0583 46.8433 18.5841C47.5042 18.9556 47.9576 19.5248 48.1771 20.2677C48.4111 21.0612 48.1506 21.6594 47.386 21.9778C46.4381 22.3685 45.4274 22.4554 44.4361 22.2986C43.1867 22.1008 41.9734 21.7269 40.8832 21.0468C40.7916 20.9889 40.6999 20.9286 40.6155 20.8586C40.3888 20.6657 40.1234 20.4872 40.3502 20.1254C40.5817 19.7539 40.8567 19.6647 41.2547 19.8504C41.848 20.1278 42.4221 20.4534 43.0396 20.6633C43.3483 20.7694 43.7607 20.738 44.0695 20.6198C44.2745 20.5427 44.4578 20.217 44.5085 19.9734C44.5712 19.6695 44.4457 19.3777 44.1057 19.2112C43.0396 18.6902 41.9879 18.1403 40.9266 17.6145C40.1693 17.2406 39.5566 16.7076 39.0453 16.0346C38.6352 15.4968 38.4833 14.8841 38.4471 14.2449C38.3796 13.0823 39.5783 12.05 40.8543 12.2164C41.8118 12.3419 42.7718 12.5107 43.6956 12.7833C45.1525 13.2126 45.9219 14.31 46.2547 15.7476C46.2644 15.7934 46.2668 15.8417 46.2644 15.8875C46.262 15.9333 46.2451 15.9767 46.2354 16.0202V16.0153Z" fill="#D00000"/>
<path d="M37.6948 13.8807C37.7671 14.4258 37.8443 14.9926 37.9239 15.5932C37.8443 15.5715 37.7406 15.5643 37.6538 15.5208C35.3889 14.4041 33.1168 13.297 30.864 12.1537C30.3406 11.8884 29.8534 11.5314 29.3975 11.1599C28.5967 10.5039 28.5219 9.85747 29.0864 8.98673C29.1804 8.84443 29.2817 8.70453 29.3999 8.57911C30.2345 7.69873 30.7651 7.78073 31.2547 8.88784C31.5369 9.52943 31.7926 10.1831 32.0362 10.8391C32.632 12.4407 33.768 13.4079 35.4444 13.6925C36.1752 13.8156 36.9254 13.8204 37.6972 13.8831L37.6948 13.8807Z" fill="#D00000"/>
<path d="M43.6068 16.1749C42.9677 15.7672 42.3912 15.4392 41.8678 15.0412C41.7182 14.9279 41.6073 14.5709 41.6724 14.4044C41.7785 14.1391 42.0415 13.9317 42.2585 13.7219C42.2827 13.7001 42.4829 13.7966 42.5335 13.8786C42.6734 14.1005 42.7844 14.3441 42.8929 14.5829C43.1148 15.0702 43.3295 15.5598 43.6044 16.1749H43.6068Z" fill="#D00000"/>
<path d="M45.3456 23.2012C44.1999 23.3653 43.0325 23.5317 41.7324 23.7174C41.9543 23.3122 42.0725 23.0059 42.2727 22.7647C42.3644 22.6537 42.6224 22.6055 42.7841 22.6368C43.6355 22.8057 44.4821 23.0083 45.348 23.2037L45.3456 23.2012Z" fill="#D00000"/>
<path d="M21.9903 8.85889C22.1133 9.73444 22.2315 10.569 22.3473 11.4035C21.573 11.4856 21.3126 11.2564 21.3873 10.4822C21.4428 9.89846 21.573 9.33646 21.9903 8.85889Z" fill="#D00000"/>
<path d="M43.8555 19.8823C43.1512 20.1982 41.9959 19.5783 41.7764 18.8354C42.471 19.1852 43.1102 19.506 43.8555 19.8823Z" fill="#D00000"/>
</g>
<defs>
<clipPath id="clip0_16_30">
<rect width="116" height="32" fill="white" transform="translate(60)"/>
</clipPath>
<clipPath id="clip1_16_30">
<rect width="56" height="33" fill="white"/>
</clipPath>
</defs>
</svg>
