<svg version="1.1" viewBox="0 0 540 540" xmlns="http://www.w3.org/2000/svg" width="580" height="580">
<path d="M0 0 C10.62802833 8.4234528 17.72624085 18.66713759 24.33984375 30.37109375 C24.76394531 31.09425781 25.18804687 31.81742188 25.625 32.5625 C25.98851562 33.20316406 26.35203125 33.84382813 26.7265625 34.50390625 C27.92028991 36.09047078 27.92028991 36.09047078 29.703125 36.9140625 C33.26137144 37.04719417 36.01067195 35.35029442 39.125 33.8125 C59.06281238 24.67129577 82.89672529 22.36754223 104 29 C104.62777344 29.19335938 105.25554687 29.38671875 105.90234375 29.5859375 C129.30465661 36.97614156 148.43932119 53.05226365 159.875 74.8125 C161.86129255 78.669034 163.78183507 82.55612988 165.6953125 86.44921875 C166.76967984 88.87219248 166.76967984 88.87219248 168 90 C170.14461825 90.11466276 172.2899173 90.22184571 174.43652344 90.28979492 C204.257822 91.23491236 227.0435193 101.04653058 247.625 122.75 C262.34276563 139.59626084 269.63295789 160.58262745 269.4375 182.8125 C269.42920166 184.03936523 269.42090332 185.26623047 269.41235352 186.53027344 C269.23698471 195.9689848 268.26022906 204.11901996 265 213 C264.76394043 213.65323242 264.52788086 214.30646484 264.28466797 214.97949219 C256.18509046 236.83947379 240.09404954 255.59860377 219.04736328 265.96142578 C207.15196517 271.36842492 194.64695952 275.14038233 181.51391602 275.11352539 C180.27315811 275.11344986 179.03240021 275.11337433 177.75404358 275.11329651 C176.42066405 275.10819154 175.08728494 275.10297557 173.75390625 275.09765625 C172.37385611 275.09578847 170.99380531 275.09436627 169.61375427 275.09336853 C166.00198498 275.08957168 162.39025665 275.07976594 158.77850342 275.06866455 C155.08476312 275.05838918 151.39101613 275.05385785 147.69726562 275.04882812 C140.46482519 275.03814082 133.23241836 275.02109888 126 275 C125.53719131 274.18784027 125.07438263 273.37568054 124.59754944 272.53890991 C116.86449892 258.97007621 109.10595907 245.41968923 101.2199707 231.93896484 C95.06463149 221.41304776 88.97742889 210.84815833 82.89111328 200.28222656 C79.14135226 193.77412081 75.38687124 187.26873565 71.63183594 180.76367188 C68.46411293 175.27515754 65.30052284 169.78433215 62.14453125 164.2890625 C55.73664403 153.14148391 49.29404571 142.02482757 42.59106445 131.05126953 C42.13046631 130.29313965 41.66986816 129.53500977 41.1953125 128.75390625 C40.59227295 127.76886108 40.59227295 127.76886108 39.97705078 126.76391602 C39 125 39 125 38 122 C36.25132517 120.91568906 36.25132517 120.91568906 34 120 C33.0925 119.484375 32.185 118.96875 31.25 118.4375 C25.272086 115.79342265 20.09014373 115.48435858 13.890625 117.25390625 C10.97142051 118.40590637 8.54160438 120.1845683 6 122 C5.34 122 4.68 122 4 122 C3.73533936 122.54446777 3.47067871 123.08893555 3.19799805 123.64990234 C1.82161645 126.34993277 0.33686757 128.97083794 -1.16796875 131.6015625 C-1.80613525 132.71805176 -2.44430176 133.83454102 -3.10180664 134.98486328 C-3.79697536 136.19827794 -4.49220818 137.41165587 -5.1875 138.625 C-5.90945851 139.88653614 -6.63138182 141.14809243 -7.35327148 142.40966797 C-13.9200017 153.88026505 -20.52371752 165.32946485 -27.13671875 176.7734375 C-29.0203505 180.03524007 -30.90122321 183.29861844 -32.78125 186.5625 C-39.3961429 198.04447253 -46.03849029 209.50950937 -52.72412109 220.95043945 C-57.64980166 229.38544189 -62.53678032 237.842451 -67.41210938 246.30664062 C-68.5893559 248.35048991 -69.79747511 250.37678748 -71.03173828 252.38671875 C-72.65431529 255.15843331 -73.74133366 257.95143727 -74.82373047 260.97265625 C-77.00237975 266.4558781 -79.20416934 271.3593165 -84 275 C-93.08961555 278.03036446 -103.177756 277.00639129 -112.62182617 276.47949219 C-115.44290183 276.34097889 -118.26277954 276.28344875 -121.08657455 276.23082542 C-153.85052691 275.61378851 -179.67671444 269.32328556 -203.33203125 245.66796875 C-219.5289275 228.58810712 -227.64307468 206.56797733 -227.4375 183.1875 C-227.42920166 181.96063477 -227.42090332 180.73376953 -227.41235352 179.46972656 C-227.23698471 170.0310152 -226.26022906 161.88098004 -223 153 C-222.64591064 152.02015137 -222.64591064 152.02015137 -222.28466797 151.02050781 C-214.18509046 129.16052621 -198.09404954 110.40139623 -177.04736328 100.03857422 C-169.96502415 96.81932916 -162.64930572 94.40701299 -155.07421875 92.640625 C-152.80543082 92.11673223 -152.80543082 92.11673223 -151 90 C-150.78769822 87.50965519 -150.78769822 87.50965519 -150.9453125 84.6015625 C-150.97294678 83.49208252 -151.00058105 82.38260254 -151.02905273 81.23950195 C-151.06071533 80.04671631 -151.09237793 78.85393066 -151.125 77.625 C-151.45170192 49.69290838 -143.61150469 26.16597444 -123.90625 5.81640625 C-90.27666698 -27.53067019 -36.66885962 -28.4653142 0 0 Z " fill="#cfd0d1" transform="translate(235,107)"/>
<path d="M0 0 C4.62705243 4.15622191 7.63349094 9.49800646 10.5 14.9375 C11.36865537 16.54168734 12.23988949 18.14448018 13.11328125 19.74609375 C13.57686035 20.59671387 14.04043945 21.44733398 14.51806641 22.32373047 C17.16058665 27.09593918 19.92724821 31.79522639 22.6875 36.5 C27.63226995 44.94233952 32.55228851 53.39803982 37.4375 61.875 C38.05971436 62.95458984 38.68192871 64.03417969 39.32299805 65.14648438 C40.58511517 67.3368252 41.84707785 69.52725502 43.10888672 71.71777344 C46.23680148 77.14659942 49.36858448 82.57319281 52.5 88 C53.75001879 90.16665583 55.00001878 92.3333225 56.25 94.5 C57.178125 96.10875 57.178125 96.10875 58.125 97.75 C78.75 133.5 78.75 133.5 80.62524414 136.75048828 C81.87435518 138.91557071 83.12354129 141.08060982 84.37280273 143.24560547 C87.51202309 148.68615706 90.64990563 154.12747216 93.78515625 159.5703125 C95.04417991 161.75526073 96.30329401 163.94015684 97.5625 166.125 C98.17512695 167.1881543 98.78775391 168.25130859 99.41894531 169.34667969 C102.57997438 174.82635277 105.75415594 180.29790503 108.94921875 185.7578125 C109.58722412 186.84819824 110.22522949 187.93858398 110.88256836 189.06201172 C112.09381933 191.12980035 113.30677055 193.19659432 114.52172852 195.26220703 C123.24275847 210.14434337 123.24275847 210.14434337 122 217 C119.89600358 221.05770739 118.22603361 223.30630289 114 225 C111.95724827 225.251849 111.95724827 225.251849 109.74237156 225.25447559 C108.47057792 225.26322388 108.47057792 225.26322388 107.17309147 225.27214891 C106.24654395 225.26836958 105.31999642 225.26459026 104.3653717 225.26069641 C103.37726216 225.26452196 102.38915262 225.26834751 101.37110037 225.27228898 C98.05081336 225.28263091 94.7306989 225.27862453 91.41040039 225.2746582 C89.0337152 225.279004 86.65703142 225.2841867 84.28034973 225.29014587 C78.48926806 225.30216686 72.69824035 225.30468558 66.90714771 225.30234561 C62.20047255 225.30056321 57.49381147 225.30231041 52.78713799 225.30657005 C52.11748614 225.30716524 51.44783429 225.30776043 50.75788997 225.30837366 C49.39753076 225.3095854 48.03717155 225.31079953 46.67681234 225.31201603 C33.91688564 225.32289461 21.15698536 225.32072755 8.39705717 225.31463119 C-3.27789079 225.30946151 -14.95275533 225.32071821 -26.62768679 225.33972941 C-38.61388701 225.35909793 -50.60004774 225.36736556 -62.58626372 225.36360615 C-69.31626954 225.36169264 -76.04620436 225.36419629 -82.77619743 225.37832069 C-89.10368357 225.39086417 -95.43100233 225.38898789 -101.75848579 225.37590981 C-104.08330974 225.37353691 -106.40814534 225.37630406 -108.73295593 225.38453293 C-111.90162951 225.39494164 -115.06973531 225.38694677 -118.23838806 225.3742218 C-119.62486326 225.38528323 -119.62486326 225.38528323 -121.03934807 225.39656812 C-125.85548339 225.35575812 -129.09340041 225.13869555 -133 222 C-135.99782679 218.48530652 -136.5197051 215.22002537 -136.44458008 210.640625 C-135.52608432 205.18513344 -132.30474329 200.70336468 -129.4375 196.0625 C-128.40503654 194.33520622 -127.37260299 192.60789361 -126.34205627 190.87945557 C-125.27418838 189.0936596 -124.19818893 187.31295753 -123.12109375 185.53271484 C-119.80412714 180.03191506 -116.63020735 174.44846713 -113.4375 168.875 C-108.07961177 159.57578876 -102.68140945 150.30061454 -97.26708984 141.03417969 C-91.10080946 130.47379718 -84.9950405 119.87873234 -78.89111328 109.28222656 C-75.76319852 103.85340058 -72.63141552 98.42680719 -69.5 93 C-68.24998121 90.83334417 -66.99998122 88.6666775 -65.75 86.5 C-62 80 -62 80 -58.25 73.5 C-57.63125 72.42741943 -57.0125 71.35483887 -56.375 70.24975586 C-55.1252818 68.08374038 -53.87528191 65.9178874 -52.625 63.75219727 C-49.49335497 58.32686691 -46.3666989 52.89877582 -43.25 47.46484375 C-39.51943306 40.9652162 -35.76779459 34.47811401 -32 28 C-31.66705933 27.42650818 -31.33411865 26.85301636 -30.99108887 26.262146 C-28.63545259 22.20661652 -26.25948061 18.16364061 -23.875 14.125 C-22.95170898 12.53739868 -22.95170898 12.53739868 -22.00976562 10.91772461 C-21.13481445 9.44638062 -21.13481445 9.44638062 -20.2421875 7.9453125 C-19.48204346 6.65391357 -19.48204346 6.65391357 -18.70654297 5.33642578 C-16.3571475 2.11987147 -13.68811744 -0.36297455 -9.9296875 -1.78125 C-6.3642717 -2.18542669 -3.21622308 -1.46252442 0 0 Z M-22.69233704 76.37721252 C-27.93429418 82.88239209 -28.52972449 90.50919528 -27.98828125 98.50390625 C-27.94060104 99.46723373 -27.89292084 100.43056122 -27.84379578 101.42308044 C-27.68763152 104.47110095 -27.500335 107.51628533 -27.3125 110.5625 C-27.20438294 112.6086194 -27.09824657 114.65484447 -26.99414062 116.70117188 C-26.98467255 136.35200375 -26.98467255 136.35200375 -17.375 152.4375 C-12.55050408 155.61151047 -7.59952572 155.71447954 -2 155 C3.56261608 152.94048471 6.92885189 149.49721154 9.9362793 144.47167969 C12.04432556 139.57338721 12.02810766 134.39148747 12.25 129.125 C12.34885498 127.29606201 12.34885498 127.29606201 12.44970703 125.43017578 C12.5829442 122.88950342 12.70604328 120.34828045 12.81933594 117.80664062 C12.99469427 114.11179313 13.22817784 110.42494869 13.4765625 106.734375 C13.61129759 104.44802915 13.74418687 102.16157359 13.875 99.875 C13.94879883 98.82844238 14.02259766 97.78188477 14.09863281 96.70361328 C14.42677718 89.79137504 13.59054057 84.02837266 10 78 C5.15949401 73.16678027 -0.03014607 70.43150586 -6.875 69.6875 C-12.77063434 70.27706343 -18.24986765 72.32783295 -22.69233704 76.37721252 Z M-20.375 170.5 C-20.91125 171.325 -21.4475 172.15 -22 173 C-22.61875 173.8971875 -22.61875 173.8971875 -23.25 174.8125 C-24.83661022 179.44011313 -24.47521319 183.60231414 -22.9375 188.125 C-19.89244466 192.64346921 -16.21921417 196.26026194 -11 198 C-5.38441811 198.36823488 -1.80613054 198.23891406 3 195 C7.1232139 190.91541106 9.7294875 187.75922752 10.3125 181.8125 C9.83037015 175.93051588 7.78730801 171.7414796 3.5625 167.625 C-5.08520749 162.14108793 -13.27994685 163.031523 -20.375 170.5 Z " fill="#cfd0d1" transform="translate(263,235)"/>
<path d="M0 0 C8.97918936 7.08094627 20.63422333 17.03785403 23.84765625 28.4921875 C24.12109375 30.90234375 24.12109375 30.90234375 22.99609375 33.65234375 C21.12109375 35.90234375 21.12109375 35.90234375 18.74609375 36.90234375 C15.12407628 36.90234375 13.93441964 36.23534571 11.12109375 33.90234375 C9.60719498 31.79354048 8.22773783 29.61591817 6.828125 27.4296875 C-3.63175742 11.94331697 -20.82403342 1.10051342 -39.09375 -2.62890625 C-50.65840869 -4.06106213 -62.28459663 -4.10014716 -73.48828125 -0.70703125 C-77.01003238 0.19067002 -79.4015318 -0.11491999 -82.87890625 -1.09765625 C-84.87890625 -3.09765625 -84.87890625 -3.09765625 -85.19140625 -6.53515625 C-84.87890625 -10.09765625 -84.87890625 -10.09765625 -83.8125 -11.68359375 C-61.19276754 -28.22570113 -19.55638328 -14.24935933 0 0 Z " fill="#cfd0d1" transform="translate(396.87890625,69.09765625)"/>
<path d="M0 0 C2.41770479 1.88043706 3.13617687 2.94636312 4.25 5.75 C4.42803955 7.92352295 4.42803955 7.92352295 4.32519531 10.29980469 C4.29145813 11.19463562 4.25772095 12.08946655 4.22296143 13.01141357 C4.17516541 13.97186584 4.12736938 14.93231812 4.078125 15.921875 C4.03564636 16.91825989 3.99316772 17.91464478 3.94940186 18.94122314 C3.85692694 21.04959356 3.75907395 23.15773395 3.65625 25.265625 C3.50128048 28.47349406 3.36651701 31.68174364 3.234375 34.890625 C3.14183741 36.94276336 3.04812505 38.99484916 2.953125 41.046875 C2.9134259 41.99923035 2.87372681 42.95158569 2.83282471 43.93280029 C2.55098218 49.45120598 1.99132108 54.48737378 0.25 59.75 C-3.24124017 62.07749345 -4.64222251 62.25299316 -8.75 61.75 C-11.5135256 59.80806309 -12.5660182 58.56147413 -13.31542969 55.25610352 C-13.89219641 50.60276258 -14.15643807 45.95909235 -14.390625 41.27734375 C-14.46576324 39.77633873 -14.46576324 39.77633873 -14.54241943 38.24501038 C-14.64542991 36.13634894 -14.74615247 34.02757465 -14.84472656 31.91870117 C-14.94834508 29.76242592 -15.05903742 27.6064791 -15.17675781 25.45092773 C-15.34702844 22.33112273 -15.49618532 19.21093871 -15.640625 16.08984375 C-15.69671936 15.12827866 -15.75281372 14.16671356 -15.81060791 13.17601013 C-16.01596067 8.17967923 -16.12031404 4.77700724 -12.75 0.75 C-8.70831417 -2.17673801 -4.4400365 -2.01819841 0 0 Z " fill="#cfd0d1" transform="translate(261.75,317.25)"/>
<path d="M0 0 C10.56799188 9.42050414 10.56799188 9.42050414 11.4375 16.625 C11 20 11 20 9.375 22 C6.1346965 23.36433832 4.36606513 22.93194471 1 22 C-1.01953125 19.92578125 -1.01953125 19.92578125 -2.8125 17.3125 C-8.61754446 9.63096669 -14.97715653 5.51918881 -24.39453125 3.375 C-29.82640123 2.81003844 -35.16931169 3.24243231 -40.58935547 3.84204102 C-42.78163447 4.04842336 -44.80778168 4.21021272 -47 4 C-49.0625 2.21875 -49.0625 2.21875 -50 0 C-49.9375 -3.0625 -49.9375 -3.0625 -49 -6 C-36.07913824 -17.82733671 -11.84364133 -9.46192187 0 0 Z " fill="#cfd0d1" transform="translate(374,103)"/>
<path d="M0 0 C2.9375 0.8125 2.9375 0.8125 4.9375 3.8125 C5.29134949 6.64329592 5.3295891 8.18080089 3.8125 10.625 C1.06594028 12.36448782 -0.88096974 12.21019128 -4.0625 11.8125 C-6 10.75 -6 10.75 -7.0625 8.8125 C-6.9375 5.25 -6.9375 5.25 -6.0625 1.8125 C-3.0625 -0.1875 -3.0625 -0.1875 0 0 Z " fill="#cfd0d1" transform="translate(257.0625,410.1875)"/>
</svg>